<svg xmlns="http://www.w3.org/2000/svg" xmlns:xlink="http://www.w3.org/1999/xlink" width="500" zoomAndPan="magnify" viewBox="0 0 375 374.999991" height="500" preserveAspectRatio="xMidYMid meet" version="1.0"><defs><g/><clipPath id="ee27995792"><path d="M 91.625 219.699219 L 283.625 219.699219 L 283.625 285.699219 L 91.625 285.699219 Z M 91.625 219.699219 " clip-rule="nonzero"/></clipPath><clipPath id="26895a9af9"><path d="M 118 219.699219 L 257 219.699219 L 257 259 L 118 259 Z M 118 219.699219 " clip-rule="nonzero"/></clipPath><clipPath id="9e8f1f5776"><path d="M 132 219.699219 L 167 219.699219 L 167 225 L 132 225 Z M 132 219.699219 " clip-rule="nonzero"/></clipPath><clipPath id="3ddea0cc68"><path d="M 152 219.699219 L 184 219.699219 L 184 245 L 152 245 Z M 152 219.699219 " clip-rule="nonzero"/></clipPath><clipPath id="c0bac68707"><path d="M 191 219.699219 L 223 219.699219 L 223 245 L 191 245 Z M 191 219.699219 " clip-rule="nonzero"/></clipPath><clipPath id="b4736f0d2e"><path d="M 208 219.699219 L 243 219.699219 L 243 225 L 208 225 Z M 208 219.699219 " clip-rule="nonzero"/></clipPath><clipPath id="d24c356a74"><path d="M 91.625 89.484375 L 283.625 89.484375 L 283.625 159.984375 L 91.625 159.984375 Z M 91.625 89.484375 " clip-rule="nonzero"/></clipPath><clipPath id="0db3dfcbc8"><path d="M 118 116 L 257 116 L 257 159.984375 L 118 159.984375 Z M 118 116 " clip-rule="nonzero"/></clipPath><clipPath id="216b3c7de4"><path d="M 132 150 L 167 150 L 167 159.984375 L 132 159.984375 Z M 132 150 " clip-rule="nonzero"/></clipPath><clipPath id="483bd17ab2"><path d="M 152 130 L 184 130 L 184 159.984375 L 152 159.984375 Z M 152 130 " clip-rule="nonzero"/></clipPath><clipPath id="0c2d076dcb"><path d="M 208 150 L 243 150 L 243 159.984375 L 208 159.984375 Z M 208 150 " clip-rule="nonzero"/></clipPath><clipPath id="aa5dee8c0e"><path d="M 191 130 L 223 130 L 223 159.984375 L 191 159.984375 Z M 191 130 " clip-rule="nonzero"/></clipPath></defs><g clip-path="url(#ee27995792)"><path fill="#1e2a47" d="M 283.292969 192.507812 C 283.320312 191.539062 283.367188 190.578125 283.367188 189.605469 C 283.367188 173.574219 279.390625 158.464844 272.40625 145.171875 C 272.328125 144.816406 272.164062 144.5 271.925781 144.234375 C 264.109375 129.75 252.667969 117.515625 238.835938 108.703125 C 238.574219 108.40625 238.25 108.199219 237.878906 108.085938 C 224.273438 99.648438 208.414062 94.523438 191.429688 93.832031 C 191.089844 93.734375 190.742188 93.730469 190.402344 93.804688 C 189.433594 93.777344 188.472656 93.734375 187.496094 93.734375 C 171.46875 93.734375 156.359375 97.707031 143.066406 104.691406 C 142.707031 104.769531 142.386719 104.933594 142.121094 105.175781 C 127.636719 112.992188 115.402344 124.433594 106.59375 138.265625 C 106.296875 138.527344 106.089844 138.851562 105.980469 139.222656 C 97.539062 152.828125 92.414062 168.6875 91.726562 185.675781 C 91.625 186.015625 91.625 186.367188 91.699219 186.707031 C 91.667969 187.675781 91.625 188.636719 91.625 189.609375 C 91.625 205.640625 95.601562 220.753906 102.585938 234.046875 C 102.664062 234.398438 102.828125 234.714844 103.066406 234.980469 C 110.867188 249.441406 122.289062 261.664062 136.089844 270.46875 C 136.371094 270.8125 136.753906 271.050781 137.171875 271.160156 C 150.746094 279.570312 166.5625 284.675781 183.5 285.378906 C 183.710938 285.445312 183.925781 285.480469 184.140625 285.480469 C 184.257812 285.480469 184.359375 285.421875 184.472656 285.402344 C 185.480469 285.433594 186.480469 285.480469 187.496094 285.480469 C 203.539062 285.480469 218.664062 281.5 231.964844 274.503906 C 232.320312 274.417969 232.648438 274.265625 232.910156 274.019531 C 247.375 266.207031 259.601562 254.769531 268.402344 240.949219 C 268.699219 240.6875 268.90625 240.363281 269.015625 239.988281 C 277.457031 226.382812 282.582031 210.527344 283.269531 193.539062 C 283.371094 193.199219 283.371094 192.847656 283.296875 192.503906 Z M 234.039062 268.574219 L 234.847656 261.570312 C 234.976562 260.425781 234.160156 259.390625 233.015625 259.261719 C 231.878906 259.113281 230.839844 259.949219 230.707031 261.089844 L 229.558594 271.054688 C 217.171875 277.472656 203.160156 281.160156 188.304688 281.289062 L 192.523438 275.601562 C 193.210938 274.675781 193.015625 273.371094 192.09375 272.6875 C 191.167969 272.003906 189.863281 272.195312 189.175781 273.117188 L 183.179688 281.199219 C 168.398438 280.511719 154.535156 276.296875 142.382812 269.394531 L 148.851562 266.59375 C 149.910156 266.140625 150.394531 264.910156 149.9375 263.855469 C 149.480469 262.796875 148.25 262.3125 147.195312 262.769531 L 138.011719 266.75 C 125.960938 258.992188 115.839844 248.503906 108.53125 236.148438 L 115.535156 236.957031 C 115.617188 236.96875 115.699219 236.972656 115.777344 236.972656 C 116.820312 236.972656 117.722656 236.191406 117.84375 235.128906 C 117.976562 233.984375 117.15625 232.949219 116.015625 232.820312 L 106.050781 231.667969 C 99.632812 219.285156 95.945312 205.269531 95.816406 190.414062 L 101.503906 194.636719 C 101.875 194.914062 102.3125 195.046875 102.742188 195.046875 C 103.378906 195.046875 104.011719 194.753906 104.417969 194.203125 C 105.105469 193.277344 104.910156 191.972656 103.988281 191.289062 L 95.90625 185.289062 C 96.59375 170.511719 100.808594 156.648438 107.710938 144.496094 L 110.511719 150.964844 C 110.851562 151.75 111.617188 152.222656 112.421875 152.222656 C 112.699219 152.222656 112.980469 152.164062 113.25 152.046875 C 114.308594 151.589844 114.792969 150.363281 114.335938 149.308594 L 110.355469 140.121094 C 118.113281 128.074219 128.601562 117.953125 140.957031 110.640625 L 140.148438 117.648438 C 140.015625 118.792969 140.835938 119.824219 141.976562 119.957031 C 142.058594 119.964844 142.140625 119.972656 142.21875 119.972656 C 143.261719 119.972656 144.164062 119.1875 144.285156 118.125 L 145.4375 108.164062 C 157.820312 101.742188 171.835938 98.058594 186.691406 97.929688 L 182.46875 103.613281 C 181.785156 104.539062 181.976562 105.84375 182.902344 106.53125 C 183.273438 106.808594 183.710938 106.941406 184.140625 106.941406 C 184.777344 106.941406 185.410156 106.648438 185.816406 106.097656 L 191.816406 98.015625 C 206.59375 98.707031 220.457031 102.921875 232.609375 109.820312 L 226.140625 112.621094 C 225.085938 113.078125 224.597656 114.304688 225.058594 115.363281 C 225.398438 116.148438 226.164062 116.621094 226.972656 116.621094 C 227.25 116.621094 227.53125 116.5625 227.796875 116.445312 L 236.984375 112.46875 C 249.03125 120.226562 259.15625 130.710938 266.464844 143.066406 L 259.457031 142.257812 C 258.324219 142.125 257.28125 142.945312 257.148438 144.089844 C 257.019531 145.234375 257.835938 146.265625 258.980469 146.398438 L 268.941406 147.546875 C 275.363281 159.933594 279.046875 173.945312 279.175781 188.800781 L 273.492188 184.582031 C 272.566406 183.898438 271.261719 184.09375 270.574219 185.011719 C 269.890625 185.9375 270.082031 187.242188 271.007812 187.929688 L 279.089844 193.925781 C 278.398438 208.707031 274.183594 222.570312 267.285156 234.722656 L 264.484375 228.253906 C 264.027344 227.195312 262.796875 226.714844 261.742188 227.167969 C 260.6875 227.625 260.199219 228.851562 260.660156 229.910156 L 264.636719 239.09375 C 256.878906 251.144531 246.394531 261.265625 234.039062 268.574219 Z M 234.039062 268.574219 " fill-opacity="1" fill-rule="nonzero"/></g><g clip-path="url(#26895a9af9)"><path fill="#1e2a47" d="M 187.496094 120.871094 C 149.59375 120.871094 118.757812 151.703125 118.757812 189.605469 C 118.757812 227.507812 149.59375 258.34375 187.496094 258.34375 C 225.398438 258.34375 256.230469 227.507812 256.230469 189.605469 C 256.230469 151.703125 225.398438 120.871094 187.496094 120.871094 Z M 187.496094 254.175781 C 151.890625 254.175781 122.925781 225.210938 122.925781 189.605469 C 122.925781 154.003906 151.890625 125.039062 187.496094 125.039062 C 223.097656 125.039062 252.0625 154.003906 252.0625 189.605469 C 252.0625 225.210938 223.097656 254.175781 187.496094 254.175781 Z M 187.496094 254.175781 " fill-opacity="1" fill-rule="nonzero"/></g><g clip-path="url(#9e8f1f5776)"><path fill="#1e2a47" d="M 165.875 198.5625 C 164.6875 195.699219 162.023438 193.917969 158.921875 193.917969 L 134.414062 193.917969 C 133.816406 193.917969 133.25 194.171875 132.855469 194.617188 C 132.460938 195.0625 132.273438 195.65625 132.34375 196.246094 C 133.535156 206.347656 137.507812 215.917969 143.820312 223.917969 C 144.191406 224.386719 144.742188 224.671875 145.335938 224.707031 C 145.378906 224.707031 145.417969 224.710938 145.460938 224.710938 C 146.011719 224.710938 146.542969 224.492188 146.933594 224.097656 L 164.25 206.769531 C 166.441406 204.574219 167.066406 201.429688 165.878906 198.5625 Z M 161.296875 203.824219 L 145.679688 219.457031 C 141.117188 213.097656 138.085938 205.789062 136.808594 198.085938 L 158.917969 198.085938 C 160.324219 198.085938 161.484375 198.863281 162.023438 200.160156 C 162.5625 201.460938 162.292969 202.828125 161.296875 203.824219 Z M 161.296875 203.824219 " fill-opacity="1" fill-rule="nonzero"/></g><g clip-path="url(#3ddea0cc68)"><path fill="#1e2a47" d="M 178.535156 211.226562 C 175.667969 210.035156 172.527344 210.664062 170.328125 212.855469 L 153 230.171875 C 152.578125 230.589844 152.359375 231.171875 152.390625 231.765625 C 152.425781 232.359375 152.714844 232.910156 153.179688 233.28125 C 161.183594 239.597656 170.75 243.566406 180.851562 244.761719 C 180.933594 244.769531 181.015625 244.777344 181.097656 244.777344 C 181.605469 244.777344 182.097656 244.589844 182.480469 244.25 C 182.925781 243.855469 183.179688 243.289062 183.179688 242.691406 L 183.179688 218.183594 C 183.179688 215.082031 181.402344 212.414062 178.53125 211.230469 Z M 179.015625 240.289062 C 171.3125 239.011719 164.003906 235.984375 157.644531 231.421875 L 173.277344 215.800781 C 174.273438 214.808594 175.644531 214.539062 176.941406 215.074219 C 178.242188 215.613281 179.015625 216.773438 179.015625 218.179688 Z M 179.015625 240.289062 " fill-opacity="1" fill-rule="nonzero"/></g><g clip-path="url(#c0bac68707)"><path fill="#1e2a47" d="M 204.65625 212.851562 C 202.464844 210.660156 199.316406 210.035156 196.453125 211.222656 C 193.585938 212.410156 191.804688 215.078125 191.804688 218.179688 L 191.804688 242.6875 C 191.804688 243.28125 192.058594 243.847656 192.503906 244.246094 C 192.890625 244.585938 193.378906 244.769531 193.890625 244.769531 C 193.96875 244.769531 194.050781 244.765625 194.132812 244.753906 C 204.234375 243.5625 213.804688 239.589844 221.804688 233.277344 C 222.269531 232.90625 222.558594 232.355469 222.59375 231.761719 C 222.628906 231.164062 222.40625 230.585938 221.984375 230.164062 L 204.65625 212.847656 Z M 195.972656 240.289062 L 195.972656 218.179688 C 195.972656 216.773438 196.75 215.613281 198.050781 215.074219 C 198.488281 214.894531 198.933594 214.804688 199.375 214.804688 C 200.230469 214.804688 201.054688 215.144531 201.710938 215.800781 L 217.34375 231.421875 C 210.984375 235.980469 203.679688 239.011719 195.976562 240.289062 Z M 195.972656 240.289062 " fill-opacity="1" fill-rule="nonzero"/></g><g clip-path="url(#b4736f0d2e)"><path fill="#1e2a47" d="M 240.578125 193.917969 L 216.070312 193.917969 C 212.964844 193.917969 210.300781 195.699219 209.113281 198.5625 C 207.929688 201.429688 208.550781 204.574219 210.742188 206.769531 L 228.058594 224.097656 C 228.449219 224.492188 228.980469 224.710938 229.535156 224.710938 C 229.574219 224.710938 229.617188 224.710938 229.65625 224.707031 C 230.25 224.671875 230.800781 224.386719 231.171875 223.917969 C 237.488281 215.917969 241.457031 206.347656 242.652344 196.246094 C 242.722656 195.65625 242.535156 195.0625 242.140625 194.617188 C 241.742188 194.171875 241.175781 193.917969 240.582031 193.917969 Z M 229.308594 219.457031 L 213.691406 203.824219 C 212.695312 202.828125 212.425781 201.460938 212.964844 200.160156 C 213.5 198.863281 214.660156 198.085938 216.070312 198.085938 L 238.175781 198.085938 C 236.902344 205.789062 233.871094 213.097656 229.308594 219.457031 Z M 229.308594 219.457031 " fill-opacity="1" fill-rule="nonzero"/></g><g fill="#1e2a47" fill-opacity="1"><g transform="translate(113.579095, 210.852087)"><g><path d="M 38.921875 -23.734375 C 41.523438 -22.898438 43.566406 -21.515625 45.046875 -19.578125 C 46.523438 -17.648438 47.265625 -15.273438 47.265625 -12.453125 C 47.265625 -8.453125 45.707031 -5.375 42.59375 -3.21875 C 39.488281 -1.070312 34.960938 0 29.015625 0 L 5.40625 0 L 5.40625 -45.625 L 27.703125 -45.625 C 33.265625 -45.625 37.535156 -44.5625 40.515625 -42.4375 C 43.492188 -40.3125 44.984375 -37.421875 44.984375 -33.765625 C 44.984375 -31.546875 44.445312 -29.566406 43.375 -27.828125 C 42.3125 -26.097656 40.828125 -24.734375 38.921875 -23.734375 Z M 15.90625 -37.671875 L 15.90625 -26.921875 L 26.40625 -26.921875 C 29.007812 -26.921875 30.984375 -27.375 32.328125 -28.28125 C 33.679688 -29.195312 34.359375 -30.546875 34.359375 -32.328125 C 34.359375 -34.109375 33.679688 -35.441406 32.328125 -36.328125 C 30.984375 -37.222656 29.007812 -37.671875 26.40625 -37.671875 Z M 28.21875 -7.953125 C 31 -7.953125 33.097656 -8.40625 34.515625 -9.3125 C 35.929688 -10.226562 36.640625 -11.644531 36.640625 -13.5625 C 36.640625 -17.34375 33.832031 -19.234375 28.21875 -19.234375 L 15.90625 -19.234375 L 15.90625 -7.953125 Z M 28.21875 -7.953125 "/></g></g></g><g fill="#1e2a47" fill-opacity="1"><g transform="translate(163.43939, 210.852087)"><g><path d="M 36.25 -23.53125 L 45.890625 -23.53125 L 45.890625 -5.015625 C 43.410156 -3.148438 40.539062 -1.71875 37.28125 -0.71875 C 34.019531 0.28125 30.738281 0.78125 27.4375 0.78125 C 22.707031 0.78125 18.453125 -0.226562 14.671875 -2.25 C 10.890625 -4.269531 7.921875 -7.070312 5.765625 -10.65625 C 3.617188 -14.238281 2.546875 -18.289062 2.546875 -22.8125 C 2.546875 -27.332031 3.617188 -31.382812 5.765625 -34.96875 C 7.921875 -38.550781 10.910156 -41.351562 14.734375 -43.375 C 18.554688 -45.394531 22.859375 -46.40625 27.640625 -46.40625 C 31.640625 -46.40625 35.269531 -45.734375 38.53125 -44.390625 C 41.789062 -43.046875 44.523438 -41.09375 46.734375 -38.53125 L 39.953125 -32.265625 C 36.703125 -35.703125 32.769531 -37.421875 28.15625 -37.421875 C 25.25 -37.421875 22.664062 -36.8125 20.40625 -35.59375 C 18.144531 -34.375 16.382812 -32.65625 15.125 -30.4375 C 13.863281 -28.226562 13.234375 -25.6875 13.234375 -22.8125 C 13.234375 -19.988281 13.863281 -17.46875 15.125 -15.25 C 16.382812 -13.03125 18.132812 -11.300781 20.375 -10.0625 C 22.613281 -8.832031 25.164062 -8.21875 28.03125 -8.21875 C 31.070312 -8.21875 33.8125 -8.867188 36.25 -10.171875 Z M 36.25 -23.53125 "/></g></g></g><g fill="#1e2a47" fill-opacity="1"><g transform="translate(213.690748, 210.852087)"><g><path d="M 25.15625 -45.625 C 29.195312 -45.625 32.707031 -44.953125 35.6875 -43.609375 C 38.664062 -42.265625 40.957031 -40.351562 42.5625 -37.875 C 44.175781 -35.394531 44.984375 -32.460938 44.984375 -29.078125 C 44.984375 -25.722656 44.175781 -22.796875 42.5625 -20.296875 C 40.957031 -17.804688 38.664062 -15.894531 35.6875 -14.5625 C 32.707031 -13.238281 29.195312 -12.578125 25.15625 -12.578125 L 15.96875 -12.578125 L 15.96875 0 L 5.40625 0 L 5.40625 -45.625 Z M 24.578125 -21.1875 C 27.742188 -21.1875 30.148438 -21.867188 31.796875 -23.234375 C 33.453125 -24.609375 34.28125 -26.554688 34.28125 -29.078125 C 34.28125 -31.640625 33.453125 -33.601562 31.796875 -34.96875 C 30.148438 -36.34375 27.742188 -37.03125 24.578125 -37.03125 L 15.96875 -37.03125 L 15.96875 -21.1875 Z M 24.578125 -21.1875 "/></g></g></g><g clip-path="url(#d24c356a74)"><path fill="#1e2a47" d="M 283.292969 188.253906 C 283.320312 187.289062 283.367188 186.328125 283.367188 185.355469 C 283.367188 169.324219 279.390625 154.210938 272.40625 140.917969 C 272.328125 140.5625 272.164062 140.246094 271.925781 139.980469 C 264.109375 125.5 252.667969 113.261719 238.835938 104.449219 C 238.574219 104.152344 238.25 103.945312 237.878906 103.835938 C 224.273438 95.394531 208.414062 90.269531 191.429688 89.582031 C 191.089844 89.484375 190.742188 89.480469 190.402344 89.554688 C 189.433594 89.523438 188.472656 89.480469 187.496094 89.480469 C 171.46875 89.480469 156.359375 93.457031 143.066406 100.4375 C 142.707031 100.515625 142.386719 100.679688 142.121094 100.925781 C 127.636719 108.742188 115.402344 120.183594 106.59375 134.011719 C 106.296875 134.273438 106.089844 134.597656 105.980469 134.972656 C 97.539062 148.578125 92.414062 164.433594 91.726562 181.421875 C 91.625 181.761719 91.625 182.113281 91.699219 182.453125 C 91.667969 183.421875 91.625 184.382812 91.625 185.355469 C 91.625 201.386719 95.601562 216.5 102.585938 229.792969 C 102.664062 230.144531 102.828125 230.464844 103.066406 230.726562 C 110.867188 245.191406 122.289062 257.410156 136.089844 266.21875 C 136.371094 266.5625 136.753906 266.796875 137.171875 266.910156 C 150.746094 275.316406 166.5625 280.425781 183.5 281.125 C 183.710938 281.195312 183.925781 281.226562 184.140625 281.226562 C 184.257812 281.226562 184.359375 281.167969 184.472656 281.148438 C 185.480469 281.179688 186.480469 281.226562 187.496094 281.226562 C 203.539062 281.226562 218.664062 277.246094 231.964844 270.25 C 232.320312 270.164062 232.648438 270.011719 232.910156 269.765625 C 247.375 261.953125 259.601562 250.515625 268.402344 236.695312 C 268.699219 236.433594 268.90625 236.109375 269.015625 235.734375 C 277.457031 222.128906 282.582031 206.273438 283.269531 189.285156 C 283.371094 188.945312 283.371094 188.59375 283.296875 188.253906 Z M 234.039062 264.324219 L 234.847656 257.316406 C 234.976562 256.171875 234.160156 255.140625 233.015625 255.007812 C 231.878906 254.859375 230.839844 255.695312 230.707031 256.839844 L 229.558594 266.800781 C 217.171875 273.222656 203.160156 276.90625 188.304688 277.035156 L 192.523438 271.351562 C 193.210938 270.425781 193.015625 269.121094 192.09375 268.433594 C 191.167969 267.75 189.863281 267.941406 189.175781 268.867188 L 183.179688 276.949219 C 168.398438 276.257812 154.535156 272.042969 142.382812 265.144531 L 148.851562 262.34375 C 149.910156 261.886719 150.394531 260.660156 149.9375 259.601562 C 149.480469 258.546875 148.25 258.0625 147.195312 258.519531 L 138.011719 262.496094 C 125.960938 254.738281 115.839844 244.253906 108.53125 231.898438 L 115.535156 232.707031 C 115.617188 232.714844 115.699219 232.71875 115.777344 232.71875 C 116.820312 232.71875 117.722656 231.9375 117.84375 230.875 C 117.976562 229.730469 117.15625 228.699219 116.015625 228.566406 L 106.050781 227.417969 C 99.632812 215.03125 95.945312 201.019531 95.816406 186.164062 L 101.503906 190.382812 C 101.875 190.660156 102.3125 190.792969 102.742188 190.792969 C 103.378906 190.792969 104.011719 190.5 104.417969 189.953125 C 105.105469 189.027344 104.910156 187.722656 103.988281 187.035156 L 95.90625 181.039062 C 96.59375 166.257812 100.808594 152.394531 107.710938 140.242188 L 110.511719 146.710938 C 110.851562 147.496094 111.617188 147.96875 112.421875 147.96875 C 112.699219 147.96875 112.980469 147.910156 113.25 147.796875 C 114.308594 147.339844 114.792969 146.109375 114.335938 145.054688 L 110.355469 135.871094 C 118.113281 123.820312 128.601562 113.699219 140.957031 106.390625 L 140.148438 113.394531 C 140.015625 114.539062 140.835938 115.570312 141.976562 115.703125 C 142.058594 115.714844 142.140625 115.71875 142.21875 115.71875 C 143.261719 115.71875 144.164062 114.9375 144.285156 113.875 L 145.4375 103.910156 C 157.820312 97.488281 171.835938 93.804688 186.691406 93.675781 L 182.46875 99.363281 C 181.785156 100.285156 181.976562 101.589844 182.902344 102.277344 C 183.273438 102.554688 183.710938 102.6875 184.140625 102.6875 C 184.777344 102.6875 185.410156 102.394531 185.816406 101.847656 L 191.816406 93.761719 C 206.59375 94.453125 220.457031 98.667969 232.609375 105.566406 L 226.140625 108.371094 C 225.085938 108.824219 224.597656 110.054688 225.058594 111.109375 C 225.398438 111.894531 226.164062 112.367188 226.972656 112.367188 C 227.25 112.367188 227.53125 112.308594 227.796875 112.195312 L 236.984375 108.214844 C 249.03125 115.972656 259.15625 126.460938 266.464844 138.816406 L 259.457031 138.007812 C 258.324219 137.871094 257.28125 138.695312 257.148438 139.835938 C 257.019531 140.980469 257.835938 142.015625 258.980469 142.144531 L 268.941406 143.296875 C 275.363281 155.679688 279.046875 169.695312 279.175781 184.550781 L 273.492188 180.328125 C 272.566406 179.644531 271.261719 179.839844 270.574219 180.761719 C 269.890625 181.6875 270.082031 182.992188 271.007812 183.675781 L 279.089844 189.675781 C 278.398438 204.453125 274.183594 218.316406 267.285156 230.46875 L 264.484375 224 C 264.027344 222.945312 262.796875 222.460938 261.742188 222.917969 C 260.6875 223.371094 260.199219 224.601562 260.660156 225.65625 L 264.636719 234.84375 C 256.878906 246.890625 246.394531 257.011719 234.039062 264.324219 Z M 234.039062 264.324219 " fill-opacity="1" fill-rule="nonzero"/></g><g clip-path="url(#0db3dfcbc8)"><path fill="#1e2a47" d="M 187.496094 116.617188 C 149.59375 116.617188 118.757812 147.453125 118.757812 185.355469 C 118.757812 223.257812 149.59375 254.089844 187.496094 254.089844 C 225.398438 254.089844 256.230469 223.257812 256.230469 185.355469 C 256.230469 147.453125 225.398438 116.617188 187.496094 116.617188 Z M 187.496094 249.921875 C 151.890625 249.921875 122.925781 220.957031 122.925781 185.355469 C 122.925781 149.75 151.890625 120.785156 187.496094 120.785156 C 223.097656 120.785156 252.0625 149.75 252.0625 185.355469 C 252.0625 220.957031 223.097656 249.921875 187.496094 249.921875 Z M 187.496094 249.921875 " fill-opacity="1" fill-rule="nonzero"/></g><g clip-path="url(#216b3c7de4)"><path fill="#1e2a47" d="M 134.414062 181.042969 L 158.921875 181.042969 C 162.023438 181.042969 164.691406 179.261719 165.875 176.394531 C 167.0625 173.527344 166.441406 170.386719 164.246094 168.1875 L 146.929688 150.859375 C 146.511719 150.4375 145.921875 150.226562 145.335938 150.25 C 144.742188 150.285156 144.191406 150.574219 143.820312 151.039062 C 137.503906 159.042969 133.535156 168.609375 132.339844 178.710938 C 132.269531 179.304688 132.457031 179.894531 132.851562 180.339844 C 133.25 180.785156 133.816406 181.039062 134.410156 181.039062 Z M 145.679688 155.503906 L 161.300781 171.136719 C 162.292969 172.132812 162.5625 173.5 162.027344 174.800781 C 161.488281 176.101562 160.328125 176.875 158.921875 176.875 L 136.8125 176.875 C 138.089844 169.171875 141.117188 161.863281 145.679688 155.507812 Z M 145.679688 155.503906 " fill-opacity="1" fill-rule="nonzero"/></g><g clip-path="url(#483bd17ab2)"><path fill="#1e2a47" d="M 170.332031 162.105469 C 171.789062 163.5625 173.671875 164.328125 175.605469 164.328125 C 176.585938 164.328125 177.578125 164.132812 178.539062 163.734375 C 181.402344 162.546875 183.183594 159.882812 183.183594 156.78125 L 183.183594 132.273438 C 183.183594 131.675781 182.929688 131.109375 182.484375 130.714844 C 182.039062 130.316406 181.4375 130.136719 180.855469 130.199219 C 170.753906 131.394531 161.183594 135.367188 153.183594 141.679688 C 152.714844 142.050781 152.429688 142.597656 152.394531 143.195312 C 152.359375 143.792969 152.582031 144.371094 153.003906 144.792969 Z M 179.015625 134.671875 L 179.015625 156.78125 C 179.015625 158.1875 178.242188 159.34375 176.941406 159.886719 C 175.644531 160.421875 174.273438 160.152344 173.28125 159.15625 L 157.648438 143.539062 C 164.007812 138.980469 171.3125 135.945312 179.015625 134.671875 Z M 179.015625 134.671875 " fill-opacity="1" fill-rule="nonzero"/></g><g clip-path="url(#0c2d076dcb)"><path fill="#1e2a47" d="M 229.652344 150.253906 C 229.074219 150.222656 228.476562 150.441406 228.058594 150.859375 L 210.742188 168.191406 C 208.550781 170.386719 207.921875 173.53125 209.113281 176.394531 C 210.300781 179.261719 212.964844 181.042969 216.066406 181.042969 L 240.574219 181.042969 C 241.171875 181.042969 241.738281 180.789062 242.132812 180.34375 C 242.527344 179.898438 242.714844 179.304688 242.644531 178.714844 C 241.453125 168.613281 237.480469 159.046875 231.167969 151.042969 C 230.796875 150.578125 230.246094 150.289062 229.652344 150.253906 Z M 216.070312 176.875 C 214.660156 176.875 213.503906 176.097656 212.964844 174.796875 C 212.425781 173.5 212.695312 172.128906 213.691406 171.136719 L 229.308594 155.503906 C 233.871094 161.859375 236.902344 169.167969 238.175781 176.871094 L 216.070312 176.871094 Z M 216.070312 176.875 " fill-opacity="1" fill-rule="nonzero"/></g><g clip-path="url(#aa5dee8c0e)"><path fill="#1e2a47" d="M 196.453125 163.734375 C 197.414062 164.132812 198.40625 164.328125 199.382812 164.328125 C 201.320312 164.328125 203.199219 163.5625 204.65625 162.105469 L 221.988281 144.792969 C 222.410156 144.371094 222.628906 143.792969 222.597656 143.195312 C 222.5625 142.601562 222.273438 142.050781 221.804688 141.679688 C 213.804688 135.367188 204.238281 131.394531 194.136719 130.199219 C 193.542969 130.136719 192.953125 130.316406 192.507812 130.714844 C 192.0625 131.109375 191.808594 131.675781 191.808594 132.273438 L 191.808594 156.78125 C 191.808594 159.882812 193.585938 162.550781 196.453125 163.734375 Z M 195.976562 134.671875 C 203.679688 135.945312 210.988281 138.976562 217.34375 143.539062 L 201.710938 159.15625 C 200.714844 160.152344 199.34375 160.421875 198.050781 159.886719 C 196.75 159.347656 195.976562 158.1875 195.976562 156.78125 Z M 195.976562 134.671875 " fill-opacity="1" fill-rule="nonzero"/></g></svg>